<svg width="147" height="30" viewBox="0 0 147 30" fill="none" xmlns="http://www.w3.org/2000/svg">
<g clip-path="url(#clip0_298_5878)">
<g clip-path="url(#clip1_298_5878)">
<path fill-rule="evenodd" clip-rule="evenodd" d="M25.6692 0.737058C18.0254 -1.81401 9.77532 2.48991 6.98169 10.1205L0 29.0858H5.24903C6.68015 29.0858 8.04586 28.386 8.7303 26.8073L13.9825 12.62C15.4009 8.74501 19.6161 6.54387 23.4755 7.90648C27.4066 9.2949 29.4313 13.6633 27.9922 17.5931C26.569 21.4794 22.2996 23.4644 18.4546 22.026L15.8795 29.0632C23.5696 31.9384 32.11 27.9699 34.9547 20.1974C37.8616 12.2555 33.6975 3.4139 25.6724 0.737058H25.6692Z" fill="#002E33"/>
<path d="M51.506 7.48877C49.5612 7.48877 48.004 8.16604 46.8712 9.50608V7.84998H43.5352V27.6909H46.8712V20.4924C48.0088 21.8179 49.566 22.4888 51.506 22.4888C53.4461 22.4888 55.0926 21.7792 56.4806 20.3183C57.8479 18.8799 58.5404 17.0867 58.5404 14.9888C58.5404 12.8908 57.8479 11.1251 56.4806 9.68668C55.0751 8.20797 53.4461 7.48877 51.506 7.48877ZM55.2059 14.9888C55.2059 16.2208 54.8182 17.2254 54.0205 18.0575C53.2339 18.8525 52.2304 19.2556 51.0386 19.2556C49.8468 19.2556 48.8432 18.8525 48.0583 18.0591C47.2589 17.2238 46.8712 16.2192 46.8712 14.9872C46.8712 13.7552 47.2701 12.7409 48.0583 11.9443C48.8352 11.1315 49.8388 10.7203 51.0386 10.7203C52.2383 10.7203 53.2403 11.1315 54.0205 11.9459C54.807 12.7409 55.2059 13.7632 55.2059 14.9872V14.9888Z" fill="#002E33"/>
<path d="M63.0216 9.62547V7.85004H59.6855V22.1276H63.0216V14.934C63.0216 13.5698 63.4221 12.5893 64.215 12.0201C65.0287 11.4106 65.9876 11.1445 67.0661 11.2219L67.2607 11.2364V7.6001H67.0789C65.2154 7.6001 63.8545 8.2806 63.0216 9.62547Z" fill="#002E33"/>
<path d="M74.7425 7.48877C72.6652 7.48877 70.8895 8.21765 69.4663 9.65605C68.0256 11.1138 67.2949 12.907 67.2949 14.9888C67.2949 17.0706 68.0256 18.8637 69.4679 20.3215C70.8911 21.7599 72.6668 22.4888 74.7425 22.4888C76.8182 22.4888 78.5955 21.7599 80.017 20.3215C81.4593 18.8654 82.19 17.0706 82.19 14.9888C82.19 12.907 81.4593 11.1138 80.017 9.65766C78.5939 8.21926 76.8182 7.48877 74.7409 7.48877H74.7425ZM78.854 14.9888C78.854 16.1933 78.4551 17.2076 77.6685 18.0026C76.882 18.7976 75.8976 19.2008 74.7425 19.2008C73.5874 19.2008 72.603 18.7976 71.8164 18.0026C71.0299 17.2076 70.631 16.1933 70.631 14.9888C70.631 13.7842 71.0299 12.7699 71.8164 11.9749C72.603 11.1799 73.5874 10.7768 74.7425 10.7768C75.8976 10.7768 76.8836 11.1799 77.6685 11.9749C78.4551 12.7699 78.854 13.7842 78.854 14.9888Z" fill="#002E33"/>
<path d="M93.9495 17.1301C93.313 18.3896 91.9728 19.1733 90.4507 19.1733C89.2956 19.1733 88.3112 18.7701 87.5263 17.9767C86.7461 17.1608 86.3664 16.1836 86.3664 14.9887C86.3664 13.7938 86.7461 12.8166 87.5247 12.0022C88.3112 11.2072 89.2956 10.8041 90.4507 10.8041C92.0238 10.8041 93.2779 11.5459 93.8921 12.8424L93.9767 13.0214L96.8549 11.3314L96.7783 11.1766C95.6375 8.90127 93.2236 7.48706 90.4778 7.48706C88.3639 7.48706 86.5706 8.21594 85.1474 9.65434C83.7418 11.075 83.0303 12.8682 83.0303 14.9871C83.0303 17.106 83.7418 18.8701 85.1474 20.3182C86.5706 21.7582 88.3639 22.4871 90.4778 22.4871C93.1789 22.4871 95.612 21.0648 96.8309 18.7733L96.9155 18.6153L94.0373 16.956L93.9511 17.1269L93.9495 17.1301Z" fill="#002E33"/>
<path d="M115.002 9.62547V7.85004H111.666V22.1276H115.002V14.934C115.002 13.5698 115.403 12.5893 116.195 12.0201C117.009 11.4106 117.968 11.1397 119.047 11.2219L119.241 11.2364V7.6001H119.059C117.196 7.6001 115.835 8.2806 115.002 9.62547Z" fill="#002E33"/>
<path d="M122.176 1.92383C121.616 1.92383 121.091 2.1512 120.699 2.5624C119.88 3.39125 119.879 4.66195 120.697 5.51822L120.702 5.52305C121.126 5.93587 121.651 6.14228 122.173 6.14228C122.695 6.14228 123.216 5.93587 123.626 5.52144C124.469 4.67001 124.48 3.39932 123.655 2.56563C123.261 2.15281 122.736 1.92544 122.176 1.92544V1.92383Z" fill="#002E33"/>
<path d="M123.845 7.84985H120.509V22.1274H123.845V7.84985Z" fill="#002E33"/>
<path d="M106.575 16.4127C106.575 18.1026 105.452 19.283 103.845 19.283C102.238 19.283 101.032 18.1026 101.032 16.4127V7.84839H97.6865V16.1901C97.6865 19.8877 100.218 22.4711 103.845 22.4711C107.471 22.4711 109.949 19.8877 109.949 16.1901V7.84839H106.575V16.4127Z" fill="#002E33"/>
<path d="M133.863 7.85001H130.615V7.75487C130.615 6.83571 130.846 6.15521 131.304 5.73272C131.802 5.27153 132.596 5.0877 133.665 5.18284L133.863 5.20058V1.93515L133.692 1.92387C131.602 1.79809 129.981 2.26411 128.876 3.3155C127.816 4.32174 127.28 5.81658 127.28 7.75487V7.85001H125.188V11.1106H127.28V22.1276H130.616V11.1106H133.865V7.88871L133.874 7.91129V7.85001H133.865H133.863Z" fill="#002E33"/>
<path d="M138.23 21.9034C137.474 23.8595 136.473 24.6174 134.749 24.5142L134.557 24.5029V27.6796L134.728 27.6909C134.891 27.7006 135.052 27.7054 135.21 27.7054C138.184 27.7054 140.341 25.9397 141.625 22.4517L147.002 7.84839H143.445L140.038 17.6156L136.071 7.84839H132.451V7.90967L138.337 21.6874L138.23 21.9034Z" fill="#002E33"/>
</g>
</g>
<defs>
<clipPath id="clip0_298_5878">
<rect width="147" height="30" fill="white"/>
</clipPath>
<clipPath id="clip1_298_5878">
<rect width="147" height="30" fill="white"/>
</clipPath>
</defs>
</svg>
